<svg width="24" height="23" viewBox="0 0 24 23" fill="none" xmlns="http://www.w3.org/2000/svg">
<path fill-rule="evenodd" clip-rule="evenodd" d="M18.8751 9.82927H12.1479C12.1479 10.5289 12.1479 11.9281 12.1436 12.6277H16.0418C15.8925 13.3273 15.3628 14.3067 14.6145 14.8C14.6138 14.7993 14.6131 14.8042 14.6116 14.8035C13.6167 15.4604 12.3037 15.6094 11.3288 15.4135C9.80069 15.1099 8.59134 14.0017 8.10032 12.5941C8.10317 12.592 8.10532 12.5724 8.10746 12.571C7.80012 11.6979 7.80012 10.5289 8.10746 9.82927H8.10675C8.50272 8.54339 9.74851 7.37015 11.2788 7.04903C12.5096 6.78808 13.8983 7.07072 14.9197 8.02638C15.0555 7.89346 16.7995 6.19062 16.9303 6.05209C13.4409 2.89197 7.85373 4.00365 5.7631 8.08445H5.76239C5.76239 8.08445 5.7631 8.08445 5.75882 8.09215C4.72458 10.0965 4.76747 12.4584 5.76596 14.3669C5.7631 14.369 5.76096 14.3704 5.75882 14.3725C6.66368 16.1285 8.31045 17.4753 10.2946 17.9881C12.4024 18.5408 15.0848 18.163 16.8817 16.5378C16.8824 16.5385 16.8831 16.5392 16.8838 16.5399C18.4062 15.1687 19.354 12.8327 18.8751 9.82927Z" fill="white"/>
</svg>
