<svg width="107" height="22" viewBox="0 0 107 22" fill="none" xmlns="http://www.w3.org/2000/svg">
<path d="M7.92 1.468C8.91733 1.468 9.79733 1.622 10.56 1.93C11.3373 2.22333 12.0707 2.66333 12.76 3.25L11.198 4.878C10.6553 4.45267 10.142 4.14467 9.658 3.954C9.18867 3.76333 8.63867 3.668 8.008 3.668C6.83467 3.668 5.874 4.13733 5.126 5.076C4.378 6.01467 4.004 7.452 4.004 9.388C4.004 11.412 4.29733 12.8713 4.884 13.766C5.48533 14.6607 6.39467 15.108 7.612 15.108C8.536 15.108 9.34267 14.91 10.032 14.514V10.554H7.744L7.436 8.398H12.892V15.834C11.2493 16.8313 9.504 17.33 7.656 17.33C5.48533 17.33 3.82067 16.6553 2.662 15.306C1.518 13.9567 0.946 11.984 0.946 9.388C0.946 7.73067 1.254 6.308 1.87 5.12C2.50067 3.91733 3.344 3.008 4.4 2.392C5.456 1.776 6.62933 1.468 7.92 1.468ZM30.2213 17H27.3833L26.9873 10.642C26.8553 8.36867 26.7893 6.56467 26.7893 5.23V4.438L24.0173 15.35H21.2673L18.3193 4.416C18.3486 5.384 18.3633 6.11733 18.3633 6.616C18.3633 7.95067 18.3193 9.322 18.2313 10.73L17.8573 17H15.0413L16.2513 1.798H19.9913L22.6973 12.446L25.2493 1.798H29.0333L30.2213 17ZM44.4603 5.032C45.9269 5.032 47.0123 5.56733 47.7163 6.638C48.4203 7.70867 48.7723 9.212 48.7723 11.148C48.7723 12.3507 48.5889 13.4213 48.2223 14.36C47.8703 15.284 47.3423 16.01 46.6383 16.538C45.9489 17.066 45.1276 17.33 44.1743 17.33C42.9423 17.33 41.9669 16.9047 41.2483 16.054V21.488L38.4323 21.796V5.362H40.8963L41.0503 6.792C41.5049 6.20533 42.0256 5.76533 42.6123 5.472C43.1989 5.17867 43.8149 5.032 44.4603 5.032ZM43.3823 15.174C45.0103 15.174 45.8243 13.8393 45.8243 11.17C45.8243 9.74733 45.6409 8.72067 45.2743 8.09C44.9076 7.45933 44.3576 7.144 43.6243 7.144C43.1549 7.144 42.7149 7.29067 42.3043 7.584C41.8936 7.86267 41.5416 8.244 41.2483 8.728V13.964C41.7909 14.7707 42.5023 15.174 43.3823 15.174ZM57.7418 5.032C58.7684 5.032 59.5751 5.34733 60.1618 5.978C60.7484 6.60867 61.0418 7.474 61.0418 8.574V17H58.2258V9.014C58.2258 8.32467 58.1011 7.84067 57.8518 7.562C57.6171 7.28333 57.2651 7.144 56.7958 7.144C56.3264 7.144 55.8938 7.298 55.4977 7.606C55.1018 7.89933 54.7204 8.32467 54.3538 8.882V17H51.5378V0.72L54.3538 0.434V6.748C55.2924 5.604 56.4218 5.032 57.7418 5.032ZM69.073 5.032C70.789 5.032 72.1236 5.582 73.077 6.682C74.045 7.76733 74.529 9.26333 74.529 11.17C74.529 12.3873 74.309 13.4653 73.869 14.404C73.429 15.328 72.7983 16.0467 71.977 16.56C71.1556 17.0733 70.1803 17.33 69.051 17.33C67.335 17.33 65.993 16.7873 65.025 15.702C64.057 14.602 63.573 13.0913 63.573 11.17C63.573 9.95267 63.793 8.882 64.233 7.958C64.673 7.034 65.3036 6.31533 66.125 5.802C66.961 5.28867 67.9436 5.032 69.073 5.032ZM69.073 7.166C67.3863 7.166 66.543 8.50067 66.543 11.17C66.543 12.5487 66.7483 13.568 67.159 14.228C67.5843 14.8733 68.215 15.196 69.051 15.196C69.887 15.196 70.5103 14.866 70.921 14.206C71.3463 13.546 71.559 12.534 71.559 11.17C71.559 9.806 71.3463 8.80133 70.921 8.156C70.5103 7.496 69.8943 7.166 69.073 7.166ZM83.8346 16.45C83.4239 16.7433 82.9619 16.9633 82.4486 17.11C81.9499 17.2567 81.4366 17.33 80.9086 17.33C79.7646 17.3153 78.8919 16.9927 78.2906 16.362C77.7039 15.7167 77.4106 14.7707 77.4106 13.524V7.386H75.5846V5.362H77.4106V2.788L80.2266 2.458V5.362H82.9326L82.6466 7.386H80.2266V13.458C80.2266 14.03 80.3219 14.4407 80.5126 14.69C80.7179 14.9393 81.0333 15.064 81.4586 15.064C81.8839 15.064 82.3459 14.9247 82.8446 14.646L83.8346 16.45ZM89.8054 5.032C91.5214 5.032 92.856 5.582 93.8094 6.682C94.7774 7.76733 95.2614 9.26333 95.2614 11.17C95.2614 12.3873 95.0414 13.4653 94.6014 14.404C94.1614 15.328 93.5307 16.0467 92.7094 16.56C91.888 17.0733 90.9127 17.33 89.7834 17.33C88.0674 17.33 86.7254 16.7873 85.7574 15.702C84.7894 14.602 84.3054 13.0913 84.3054 11.17C84.3054 9.95267 84.5254 8.882 84.9654 7.958C85.4054 7.034 86.036 6.31533 86.8574 5.802C87.6934 5.28867 88.676 5.032 89.8054 5.032ZM89.8054 7.166C88.1187 7.166 87.2754 8.50067 87.2754 11.17C87.2754 12.5487 87.4807 13.568 87.8914 14.228C88.3167 14.8733 88.9474 15.196 89.7834 15.196C90.6194 15.196 91.2427 14.866 91.6534 14.206C92.0787 13.546 92.2914 12.534 92.2914 11.17C92.2914 9.806 92.0787 8.80133 91.6534 8.156C91.2427 7.496 90.6267 7.166 89.8054 7.166ZM101.575 5.032C103.144 5.032 104.523 5.494 105.711 6.418L104.611 8.068C103.614 7.43733 102.638 7.122 101.685 7.122C101.128 7.122 100.695 7.232 100.387 7.452C100.079 7.65733 99.925 7.936 99.925 8.288C99.925 8.552 99.991 8.772 100.123 8.948C100.255 9.124 100.49 9.29267 100.827 9.454C101.179 9.60067 101.692 9.76933 102.367 9.96C103.628 10.2973 104.56 10.7447 105.161 11.302C105.777 11.8593 106.085 12.6367 106.085 13.634C106.085 14.7927 105.616 15.702 104.677 16.362C103.738 17.0073 102.572 17.33 101.179 17.33C100.226 17.33 99.353 17.1833 98.561 16.89C97.7837 16.5967 97.109 16.1933 96.537 15.68L97.945 14.096C98.957 14.8587 100.013 15.24 101.113 15.24C101.744 15.24 102.242 15.1153 102.609 14.866C102.99 14.6167 103.181 14.272 103.181 13.832C103.181 13.4947 103.108 13.2307 102.961 13.04C102.829 12.8347 102.58 12.6587 102.213 12.512C101.861 12.3507 101.304 12.16 100.541 11.94C99.353 11.6173 98.4804 11.17 97.923 10.598C97.3657 10.0113 97.087 9.28533 97.087 8.42C97.087 7.77467 97.2704 7.19533 97.637 6.682C98.0184 6.16867 98.5464 5.76533 99.221 5.472C99.9104 5.17867 100.695 5.032 101.575 5.032Z" fill="white"/>
</svg>
